<svg width="100%" height="100%" viewBox="0 0 59 59" fill="none" xmlns="http://www.w3.org/2000/svg">
<path d="M57.8628 26.632L49.1818 18.571V5.365H39.1818V9.286L29.1818 0L0.501811 26.632C0.0978111 27.008 0.0738111 27.641 0.449811 28.046C0.824811 28.45 1.45781 28.473 1.86381 28.098L5.18281 25.016V58.365H21.1828H37.1828H53.1828V25.015L56.5018 28.097C56.6938 28.276 56.9388 28.364 57.1828 28.364C57.4518 28.364 57.7188 28.257 57.9148 28.045C58.2908 27.641 58.2668 27.008 57.8628 26.632ZM41.1818 7.365H47.1818V16.714L41.1818 11.143V7.365ZM23.1818 56.365V35.302C23.1818 34.785 23.6018 34.365 24.1188 34.365H34.2448C34.7618 34.365 35.1818 34.785 35.1818 35.302V56.365H23.1818V56.365ZM51.1818 56.365H37.1818V35.302C37.1818 33.682 35.8648 32.365 34.2448 32.365H24.1188C22.4988 32.365 21.1818 33.682 21.1818 35.302V56.365H7.18181V23.158L29.1818 2.729L43.4618 15.989L49.1818 21.3L51.1818 23.157V56.365V56.365Z" fill="black"/>
</svg>
